<svg width="34" height="33" viewBox="0 0 34 33" fill="none" xmlns="http://www.w3.org/2000/svg">
<g clip-path="url(#clip0_130_1076)">
<path d="M16.7983 0C12.4856 0 8.34561 1.71469 5.29846 4.76387C2.24817 7.81425 0.53417 11.9512 0.533325 16.265C0.533325 20.577 2.24877 24.717 5.29846 27.7661C8.34561 30.8153 12.4856 32.53 16.7983 32.53C21.1111 32.53 25.251 30.8153 28.2982 27.7661C31.3479 24.717 33.0633 20.577 33.0633 16.265C33.0633 11.953 31.3479 7.81305 28.2982 4.76387C25.251 1.71469 21.1111 0 16.7983 0Z" fill="url(#paint0_linear_130_1076)"/>
<path d="M7.89576 16.0932C12.638 14.0275 15.7995 12.6656 17.3803 12.0076C21.8989 10.1288 22.8367 9.80246 23.4492 9.7914C23.5839 9.78924 23.8837 9.82253 24.0794 9.98074C24.2421 10.1142 24.2878 10.2946 24.3107 10.4213C24.331 10.5479 24.359 10.8363 24.3361 11.0615C24.0921 13.6334 23.0324 19.8746 22.4936 22.7552C22.2674 23.9741 21.8176 24.3828 21.383 24.4227C20.4376 24.5096 19.7209 23.7985 18.806 23.199C17.3752 22.2604 16.567 21.6764 15.1769 20.7607C13.5707 19.7025 14.6127 19.1208 15.5276 18.1703C15.7665 17.9215 19.9293 14.1361 20.0081 13.7927C20.0183 13.7498 20.0284 13.5897 19.9319 13.5053C19.8378 13.4207 19.6981 13.4496 19.5964 13.4725C19.4515 13.505 17.1668 15.0167 12.7346 18.0071C12.0865 18.4529 11.4995 18.6702 10.9709 18.6587C10.3914 18.6463 9.27321 18.3304 8.44217 18.0605C7.4256 17.7294 6.61489 17.5543 6.68605 16.9918C6.72163 16.6991 7.12572 16.3994 7.89576 16.0932Z" fill="white"/>
</g>
<defs>
<linearGradient id="paint0_linear_130_1076" x1="1627.03" y1="0" x2="1627.03" y2="3253" gradientUnits="userSpaceOnUse">
<stop stop-color="#2AABEE"/>
<stop offset="1" stop-color="#229ED9"/>
</linearGradient>
<clipPath id="clip0_130_1076">
<rect width="32.53" height="32.53" fill="white" transform="translate(0.533325)"/>
</clipPath>
</defs>
</svg>
