<svg width="33" height="33" viewBox="0 0 33 33" fill="none" xmlns="http://www.w3.org/2000/svg">
<rect width="32.5333" height="32.5333" rx="16.2667" fill="black"/>
<g clip-path="url(#clip0_77_95)">
<path d="M9 9.05625C9 9.10312 9.56369 9.92812 9.66879 10.0312C9.69745 10.0594 9.97452 10.4531 10.2898 10.9219C10.5955 11.3812 10.8822 11.7844 10.9204 11.8125C10.949 11.8406 11.1688 12.15 11.4076 12.5156C11.6465 12.8719 12.086 13.5094 12.3822 13.9219C13.1274 14.9344 13.1274 14.9344 13.7389 15.8438C14.0446 16.2844 14.4076 16.7906 14.551 16.9687L14.8089 17.2969L14.6178 17.5312C14.5127 17.6625 14.1879 18.0281 13.9013 18.3562C13.6051 18.6844 13.2803 19.05 13.1752 19.1906C13.0701 19.3219 12.8885 19.5187 12.7834 19.6312C12.5828 19.8281 11.9236 20.5781 11.2834 21.3281C11.1019 21.5344 10.8248 21.8531 10.6529 22.0312C10.2898 22.425 10.1178 22.6219 9.62102 23.2125C9.41083 23.4562 9.18153 23.7094 9.1242 23.775C8.91401 23.9719 8.98089 24 9.69745 24C10.3471 24 10.414 23.9812 10.6242 23.7375C10.7484 23.5969 10.9777 23.3344 11.1401 23.1469C11.3025 22.9594 11.6561 22.5656 11.914 22.2656C12.1815 21.9656 12.4777 21.6281 12.5828 21.525C12.6879 21.4125 12.9459 21.1125 13.1561 20.8594C13.3662 20.5969 13.6242 20.3062 13.7293 20.1937C13.8344 20.0906 14.1401 19.7531 14.3981 19.4531C14.6656 19.1531 15.0096 18.7594 15.172 18.5719L15.4682 18.2437L15.5924 18.4781C15.6592 18.6 15.7452 18.7219 15.7739 18.75C15.8121 18.7781 16.0892 19.1719 16.4045 19.6406C16.7197 20.1 16.9968 20.5031 17.0255 20.5312C17.0637 20.5594 17.551 21.2531 18.1242 22.0781C18.6975 22.9031 19.2229 23.6344 19.2898 23.7C19.3567 23.7656 19.414 23.8687 19.414 23.9156C19.414 23.9625 20.3599 24 21.707 24C22.9682 24 24 23.9719 24 23.9437C24 23.8969 23.4363 23.0719 23.3312 22.9688C23.3025 22.9406 23.0255 22.5375 22.7102 22.0781C22.4045 21.6094 22.1178 21.2156 22.0796 21.1875C22.051 21.1594 21.8312 20.8406 21.5924 20.4844C21.3535 20.1187 20.914 19.4906 20.6178 19.0781C19.8535 18.0375 19.8726 18.0562 19.1561 17.0156C18.8121 16.5 18.4204 15.9562 18.2962 15.8156C18 15.45 18.0191 15.2906 18.4204 14.85C18.6115 14.6531 19.1561 14.0437 19.6242 13.5C20.0924 12.9562 20.6178 12.3656 20.7898 12.1875C20.9618 12.0094 21.2675 11.6531 21.4777 11.4C21.6783 11.1469 21.9363 10.8469 22.0414 10.7344C22.3854 10.3781 23.2548 9.38437 23.3981 9.1875C23.5318 9 23.5223 9 22.8153 9H22.1083L21.6879 9.4875C21.4682 9.75937 21.1911 10.0687 21.086 10.1812C20.9809 10.2844 20.6847 10.6219 20.4172 10.9219C20.1592 11.2219 19.7866 11.6437 19.6051 11.85C19.4236 12.0656 19.2516 12.2531 19.2229 12.2812C19.1943 12.3094 18.9172 12.6187 18.6019 12.9844C18.2866 13.3406 17.9522 13.725 17.8471 13.8281C17.7516 13.9312 17.6083 14.1094 17.5318 14.2219C17.3599 14.4844 17.3503 14.475 16.5955 13.3594C16.2803 12.8906 15.9841 12.4688 15.9268 12.4125C15.879 12.3562 15.3153 11.5594 14.6847 10.65L13.5382 9H11.2739C10.0223 9 9 9.02812 9 9.05625ZM13.5573 11.0719C14.2643 12.0656 14.742 12.7312 15.6783 14.0719C15.9172 14.4 16.1274 14.6906 16.1656 14.7188C16.2038 14.7469 16.3854 15 16.5764 15.2906C16.758 15.5906 16.9777 15.9 17.0637 15.9937C17.1497 16.0969 17.5987 16.7156 18.0669 17.3906C18.535 18.0562 18.9554 18.6469 19.0032 18.7031C19.051 18.75 19.4236 19.2844 19.8439 19.875C20.2548 20.4656 20.6178 20.9719 20.6465 21C20.6752 21.0281 20.7898 21.1687 20.9045 21.3281C21.0096 21.4781 21.2962 21.8812 21.5255 22.2187C21.7643 22.5562 21.9936 22.8844 22.0318 22.9406C22.0796 23.0344 21.879 23.0625 21.1338 23.0625H20.1783L19.8248 22.5187C19.6338 22.2281 19.4522 21.9656 19.4236 21.9375C19.3949 21.9094 19.2134 21.675 19.0318 21.4219C18.8503 21.1594 18.6497 20.8969 18.5828 20.8312C18.5159 20.7656 18.4586 20.6719 18.4586 20.625C18.4586 20.5781 18.4013 20.4844 18.3439 20.4187C18.2771 20.3531 18.0478 20.0437 17.8376 19.7344C17.6274 19.425 17.4363 19.1531 17.3981 19.125C17.3694 19.0969 17.207 18.8625 17.0255 18.6094C16.8439 18.3469 16.6815 18.1219 16.6529 18.0938C16.6242 18.0656 16.3376 17.6625 16.0223 17.2031C15.707 16.7344 15.4013 16.3125 15.3439 16.2469C15.2866 16.1906 15.0955 15.9187 14.914 15.6375C14.742 15.3656 14.5701 15.1219 14.5414 15.0938C14.5032 15.0656 14.3408 14.8312 14.1592 14.5781C13.9777 14.3156 13.8153 14.0906 13.7866 14.0625C13.7484 14.0344 13.5573 13.7625 13.3471 13.4531C13.1369 13.1437 12.9459 12.8719 12.9172 12.8438C12.8885 12.8156 12.6306 12.4594 12.3439 12.0469C12.0669 11.6344 11.7994 11.2781 11.7707 11.25C11.6943 11.1937 11.0064 10.1344 11.0064 10.0781C11.0064 10.05 11.4172 10.0312 11.914 10.0312H12.8121L13.5573 11.0719Z" fill="#F5F3EF"/>
</g>
<defs>
<clipPath id="clip0_77_95">
<rect width="15" height="15" fill="white" transform="translate(9 9)"/>
</clipPath>
</defs>
</svg>
